<?xml version="1.0" encoding="UTF-8" standalone="no"?>
<!-- Created with Inkscape (http://www.inkscape.org/) -->

<svg
   version="1.1"
   id="svg1"
   width="7cm"
   height="4cm"
   viewBox="0 0 264.56693 151.1811"
   sodipodi:docname="CABALFIN_.svg"
   inkscape:version="1.4 (86a8ad7, 2024-10-11)"
   inkscape:export-filename="CABALFIN_.png"
   inkscape:export-xdpi="96"
   inkscape:export-ydpi="96"
   xmlns:inkscape="http://www.inkscape.org/namespaces/inkscape"
   xmlns:sodipodi="http://sodipodi.sourceforge.net/DTD/sodipodi-0.dtd"
   xmlns="http://www.w3.org/2000/svg"
   xmlns:svg="http://www.w3.org/2000/svg">
  <defs
     id="defs1" />
  <sodipodi:namedview
     id="namedview1"
     pagecolor="#505050"
     bordercolor="#eeeeee"
     borderopacity="1"
     inkscape:showpageshadow="0"
     inkscape:pageopacity="0"
     inkscape:pagecheckerboard="0"
     inkscape:deskcolor="#505050"
     showgrid="true"
     inkscape:zoom="4.0000001"
     inkscape:cx="-192.125"
     inkscape:cy="-75.624998"
     inkscape:window-width="1920"
     inkscape:window-height="1009"
     inkscape:window-x="-8"
     inkscape:window-y="-8"
     inkscape:window-maximized="1"
     inkscape:current-layer="g1"
     inkscape:document-units="in">
    <inkscape:grid
       id="grid2"
       units="px"
       originx="0"
       originy="0"
       spacingx="1"
       spacingy="1"
       empcolor="#0099e5"
       empopacity="0.30196078"
       color="#0099e5"
       opacity="0.14901961"
       empspacing="5"
       enabled="true"
       visible="true" />
  </sodipodi:namedview>
  <g
     inkscape:groupmode="layer"
     inkscape:label="Image"
     id="g1">
    <path
       style="opacity:0.847518;fill:#ffffff;fill-opacity:1;stroke-width:38.0145"
       d="M 0.18897687,0.18592894 113.47015,75.483365 0.62369076,151.21888 0.32834598,150.90616"
       id="path2"
       sodipodi:nodetypes="cccc" />
    <path
       sodipodi:type="star"
       style="opacity:0.847518;fill:#ecfd02;fill-opacity:1"
       id="path9-6"
       inkscape:flatsided="false"
       sodipodi:sides="5"
       sodipodi:cx="0.22072491"
       sodipodi:cy="0.3601301"
       sodipodi:r1="0.15246753"
       sodipodi:r2="0.076233767"
       sodipodi:arg1="1.8804993"
       sodipodi:arg2="2.5088178"
       inkscape:rounded="0"
       inkscape:randomized="0"
       d="m 0.1742565,0.50534386 -0.0150057,-0.10013028 -0.0909919,-0.044404 0.09059254,-0.0452132 0.0141127,-0.10026004 0.070995,0.072187 0.099714,-0.0175601 -0.0467152,0.0898272 0.047514,0.0894073 -0.0998666,-0.0166707 z"
       inkscape:transform-center-x="0.47101865"
       inkscape:transform-center-y="-0.082226885"
       transform="matrix(37.722831,1.9134577,-1.9159784,37.673205,0.26695522,123.24439)" />
    <path
       sodipodi:type="star"
       style="opacity:0.847518;fill:#fcd116;fill-opacity:1"
       id="path9-2"
       inkscape:flatsided="false"
       sodipodi:sides="5"
       sodipodi:cx="0.22072491"
       sodipodi:cy="0.3601301"
       sodipodi:r1="0.15246753"
       sodipodi:r2="0.076233767"
       sodipodi:arg1="1.8804993"
       sodipodi:arg2="2.5088178"
       inkscape:rounded="0"
       inkscape:randomized="0"
       d="m 0.1742565,0.50534386 -0.0150057,-0.10013028 -0.0909919,-0.044404 0.09059254,-0.0452132 0.0141127,-0.10026004 0.070995,0.072187 0.099714,-0.0175601 -0.0467152,0.0898272 0.047514,0.0894073 -0.0998666,-0.0166707 z"
       inkscape:transform-center-x="-0.47418557"
       inkscape:transform-center-y="0.078965415"
       transform="matrix(29.435988,23.637524,-23.668662,29.397265,102.67172,59.101614)" />
    <path
       style="opacity:0.847518;fill:#fcd116;fill-opacity:1;stroke-width:36.791"
       d="M 51.432742,74.710937 65.15021,76.151227 63.523078,77.546274 51.429832,75.69082 Z"
       id="path17-9-5" />
    <path
       style="opacity:0.847518;fill:#fcd116;fill-opacity:1;stroke-width:36.791"
       d="m 46.387477,80.919165 8.770253,10.631712 -2.139602,-0.144476 -7.32062,-9.790505 z"
       id="path17-63-0" />
    <path
       style="opacity:0.847518;fill:#fcd116;fill-opacity:1;stroke-width:36.791"
       d="m 27.000832,80.411378 -11.671143,7.34106 0.414645,-2.101274 10.651935,-6.01158 z"
       id="path17-36" />
    <path
       style="opacity:0.847518;fill:#fcd116;fill-opacity:1;stroke-width:36.791"
       d="M 23.218192,71.481018 9.5700116,69.489687 11.252134,68.161272 23.260647,70.502053 Z"
       id="path17-9" />
    <path
       style="opacity:0.847518;fill:#fcd116;fill-opacity:1;stroke-width:36.791"
       d="m 27.579211,59.661804 -8.770248,-10.631712 2.139618,0.144266 7.320616,9.790515 z"
       id="path17-63" />
    <path
       style="opacity:0.847518;fill:#fcd116;fill-opacity:1;stroke-width:36.791"
       d="m 48.897891,63.129253 11.618014,-7.424658 -0.39953,2.104204 -10.608396,6.087878 z"
       id="path17-6" />
    <path
       style="opacity:0.847518;fill:#fcd116;fill-opacity:1;stroke-width:37.7459"
       d="m 36.544593,56.454058 -2.650985,-13.525939 -1.330263,1.741695 2.952256,11.873044 z"
       id="path17-3" />
    <path
       style="opacity:0.847518;fill:#fcd116;fill-opacity:1;stroke-width:38.8119"
       d="m 25.378022,61.803343 -11.237138,-8.724545 0.121027,2.221359 10.359875,7.247737 z"
       id="path17-3-8" />
    <path
       style="opacity:0.847518;fill:#fcd116;fill-opacity:1;stroke-width:42.6036"
       d="M 29.556797,81.034556 18.317341,92.869569 14.71148,92.253227 15.387744,89.158301 28.661289,80.013587 Z"
       id="path16-4"
       sodipodi:nodetypes="cccccc"
       inkscape:transform-center-x="-0.825049"
       inkscape:transform-center-y="-0.010236541" />
    <path
       style="opacity:0.847518;fill:#fcd116;fill-opacity:1;stroke-width:42.6036"
       d="M 36.919939,58.826191 34.926741,42.636736 37.69683,40.250381 39.657662,42.740355 38.2784,58.785671 Z"
       id="path16-9"
       sodipodi:nodetypes="cccccc"
       inkscape:transform-center-x="0.68944535"
       inkscape:transform-center-y="0.51354012" />
    <path
       style="opacity:0.847518;fill:#fcd116;fill-opacity:1;stroke-width:42.6036"
       d="M 46.095996,78.015302 59.171056,87.790435 58.97653,91.43873 55.819968,91.127151 45.184451,79.022079 Z"
       id="path16-85"
       sodipodi:nodetypes="cccccc"
       inkscape:transform-center-x="0.263234"
       inkscape:transform-center-y="-0.840689" />
    <path
       style="opacity:0.847518;fill:#fcd116;fill-opacity:1;stroke-width:42.6036"
       d="M 25.813051,73.355145 9.6045818,75.364378 7.2118871,72.600695 9.7028762,70.639573 25.77091,71.998495 Z"
       id="path16-1"
       sodipodi:nodetypes="cccccc"
       inkscape:transform-center-x="-0.51499219"
       inkscape:transform-center-y="0.69582709" />
    <path
       style="opacity:0.847518;fill:#fcd116;fill-opacity:1;stroke-width:42.6036"
       d="m 49.55518,72.4825 16.198739,-2.08605 2.405825,2.752337 -2.481663,1.972897 -16.074304,-1.282777 z"
       id="path16-8"
       sodipodi:nodetypes="cccccc"
       inkscape:transform-center-x="0.51816301"
       inkscape:transform-center-y="-0.72588855" />
    <path
       style="opacity:0.847518;fill:#1d2d39;fill-opacity:1;stroke-width:37.7468"
       d="m 112.7663,73.817401 c 150.173,0 150.173,0 150.173,0"
       id="path3" />
    <path
       style="opacity:0.847518;fill:#ce1126;fill-opacity:1;stroke-width:37.7468"
       d="M 114.0847,75.596793 264.87824,76.216529 264.42307,150.89437 0.21134839,151.27916 113.5206,75.230664"
       id="path4"
       sodipodi:nodetypes="ccccc" />
    <path
       style="opacity:0.847518;fill:#0038a8;fill-opacity:1;stroke-width:37.9493"
       d="M 114.10587,75.531826 264.60161,76.160202 264.40962,-0.0016176 -0.06300474,0.16233714 111.63154,74.275071"
       id="path5"
       sodipodi:nodetypes="ccccc" />
    <path
       sodipodi:type="star"
       style="opacity:0.847518;fill:#fcd116;fill-opacity:1"
       id="path9"
       inkscape:flatsided="false"
       sodipodi:sides="5"
       sodipodi:cx="0.22072491"
       sodipodi:cy="0.3601301"
       sodipodi:r1="0.15246753"
       sodipodi:r2="0.076233767"
       sodipodi:arg1="1.8804993"
       sodipodi:arg2="2.5088178"
       inkscape:rounded="0"
       inkscape:randomized="0"
       d="m 0.1742565,0.50534386 -0.0150057,-0.10013028 -0.0909919,-0.044404 0.09059254,-0.0452132 0.0141127,-0.10026004 0.070995,0.072187 0.099714,-0.0175601 -0.0467152,0.0898272 0.047514,0.0894073 -0.0998666,-0.0166707 z"
       inkscape:transform-center-x="0.42035875"
       inkscape:transform-center-y="0.13440504"
       transform="matrix(37.675651,-2.685025,2.688562,37.626086,-2.8305886,0.35606231)" />
    <ellipse
       style="opacity:0.847518;fill:#fcd116;fill-opacity:1;stroke-width:37.7468"
       id="path13"
       cx="36.817955"
       cy="71.01873"
       rx="15.686913"
       ry="14.680288" />
    <path
       style="opacity:0.847518;fill:#eafd02;fill-opacity:1;stroke-width:37.7468"
       d="m 31.533212,39.808333 c 0,0 2.80336,-2.357612 0,0 z"
       id="path14" />
    <path
       style="opacity:0.847518;fill:#eafd02;fill-opacity:1;stroke-width:37.7468"
       d="M 28.729861,42.165942 Z"
       id="path15" />
    <path
       style="opacity:0.847518;fill:#fcd116;fill-opacity:1;stroke-width:42.6036"
       d="m 46.052475,63.077555 11.045703,-12.015583 3.615407,0.557829 -0.625912,3.105482 -13.12323,9.358595 z"
       id="path16"
       sodipodi:nodetypes="cccccc"
       inkscape:transform-center-x="0.82806023"
       inkscape:transform-center-y="0.045566659" />
    <path
       style="opacity:0.847518;fill:#fcd116;fill-opacity:1;stroke-width:42.6036"
       d="m 27.347636,62.45422 -12.86828,-10.045074 0.27052,-3.643466 3.149372,0.377215 10.380655,12.323754 z"
       id="path16-23"
       sodipodi:nodetypes="cccccc"
       inkscape:transform-center-x="-0.21808473"
       inkscape:transform-center-y="0.83852879" />
    <path
       style="opacity:0.847518;fill:#fcd116;fill-opacity:1;stroke-width:42.6036"
       d="m 38.52271,82.404814 1.878221,16.203145 -2.786964,2.366701 -1.943107,-2.503782 1.493102,-16.035149 z"
       id="path16-2"
       sodipodi:nodetypes="cccccc"
       inkscape:transform-center-x="-0.64443146"
       inkscape:transform-center-y="-0.50875098" />
    <path
       style="opacity:0.847518;fill:#fcd116;fill-opacity:1;stroke-width:36.791"
       d="m 38.851542,57.150332 1.815224,-13.655114 1.352068,1.662361 -2.186554,12.022317 z"
       id="path17" />
    <path
       style="opacity:0.847518;fill:#fcd116;fill-opacity:1;stroke-width:36.791"
       d="M 36.719993,84.182066 34.996386,97.849018 33.633202,96.195746 35.739084,84.15907 Z"
       id="path17-2" />
    <path
       style="opacity:0.847518;fill:#fcd116;fill-opacity:1;stroke-width:34.1205"
       d="M 22.378147,74.572755 9.8586431,76.102628 11.363594,77.394472 22.393263,75.494691 Z"
       id="path17-3-7" />
    <path
       style="opacity:0.847518;fill:#fcd116;fill-opacity:1;stroke-width:37.7459"
       d="M 28.314393,83.009616 19.0194,93.197379 21.212618,93.225969 28.999092,83.7818 Z"
       id="path17-3-86" />
    <path
       style="opacity:0.847518;fill:#fcd116;fill-opacity:1;stroke-width:37.7459"
       d="M 39.563793,84.782161 41.213414,98.46595 42.668116,96.826494 40.59654,84.769045 Z"
       id="path17-3-6" />
    <path
       style="opacity:0.847518;fill:#fcd116;fill-opacity:1;stroke-width:37.7459"
       d="M 48.231652,79.226942 59.589705,87.055988 59.323304,84.881683 48.90584,78.44554 Z"
       id="path17-3-65" />
    <path
       style="opacity:0.847518;fill:#fcd116;fill-opacity:1;stroke-width:37.7459"
       d="M 51.980172,71.572105 65.660904,69.758241 64.001703,68.325521 51.954476,70.54096 Z"
       id="path17-3-61" />
    <path
       style="opacity:0.847518;fill:#fcd116;fill-opacity:1;stroke-width:37.7459"
       d="m 47.584972,61.269147 8.43705,-10.907038 -2.188292,0.149003 -6.993883,10.04372 z"
       id="path17-3-4" />
    <path
       style="opacity:0.847518;fill:#fcd116;fill-opacity:1;stroke-width:0.208521"
       d="m 5.8728366,141.49424 c -0.070524,-0.42611 -0.1292923,-1.12976 -0.1305329,-1.56364 -0.00272,-0.93709 -0.4064892,-1.3744 -2.1474012,-2.3259 l -1.2061439,-0.65919 1.6625792,-0.68552 1.66258,-0.68553 0.218481,-1.01731 c 0.1201371,-0.55954 0.2778397,-1.38824 0.3504422,-1.84159 l 0.1319802,-0.82426 1.1753879,1.33816 c 1.28614,1.46425 1.3162305,1.47385 3.5749739,1.14523 0.631196,-0.0917 1.179564,-0.13927 1.218603,-0.10479 0.03902,0.034 -0.320943,0.72085 -0.799919,1.52604 -0.967148,1.6258 -0.967049,1.63825 0.02886,3.62124 0.671338,1.33674 0.68079,1.32968 -1.177845,0.88149 -0.6885758,-0.16604 -1.3928048,-0.3029 -1.564946,-0.30403 -0.172174,-0.001 -0.8880501,0.50999 -1.5908965,1.13618 l -1.2779067,1.13853 z"
       id="path18" />
    <path
       style="opacity:0.847518;fill:#fcd116;fill-opacity:1;stroke-width:0.147448"
       d="m 26.504671,61.713567 c -0.439714,-0.341013 -0.852178,-0.666193 -0.916584,-0.7229 -0.0644,-0.05649 0.179292,-0.345532 0.541615,-0.64215 l 0.658727,-0.539088 0.700977,0.819421 0.700977,0.819424 -0.443118,0.442547 -0.44312,0.442549 z"
       id="path20" />
    <path
       style="opacity:0.847518;fill:#fcd116;fill-opacity:1;stroke-width:0.122107"
       d="m 37.550995,51.296954 c -0.821502,-0.02949 -0.8451,-0.03854 -0.923477,-0.353827 -0.144414,-0.580813 -1.553225,-8.569478 -1.553225,-8.807552 0,-0.166727 0.368268,-0.447492 1.310203,-0.999244 l 1.310203,-0.767475 0.934995,0.814595 c 0.809806,0.705591 0.92959,0.864087 0.894771,1.184228 -0.103361,0.952247 -1.063462,8.67399 -1.094852,8.807723 -0.02779,0.118413 -0.219721,0.144952 -0.878618,0.121363 z"
       id="path22" />
    <path
       style="opacity:0.847518;fill:#fcd116;fill-opacity:1;stroke-width:0.135025"
       d="m 39.228869,54.396473 c -0.162428,-0.08597 -0.04725,-1.050552 0.637427,-5.340656 0.459497,-2.879526 0.851239,-5.248831 0.870582,-5.265047 0.07619,-0.06373 1.124802,1.071743 1.130056,1.223659 0.0032,0.08891 -0.445113,2.260852 -0.995918,4.826314 -1.033249,4.812218 -1.053446,4.868234 -1.642147,4.55573 z"
       id="path23" />
    <path
       style="opacity:0.847518;fill:#fcd116;fill-opacity:1;stroke-width:0.37478"
       d=""
       id="path32" />
    <path
       style="opacity:0.847518;fill:#fcd116;fill-opacity:1;stroke-width:0.147448"
       d="m 38.910449,56.863086 c 0,-0.229338 0.09834,-0.2946 0.442631,-0.2946 0.34411,0 0.442631,0.06554 0.442631,0.2946 0,0.229359 -0.09834,0.2946 -0.442631,0.2946 -0.34408,0 -0.442631,-0.06555 -0.442631,-0.2946 z"
       id="path45" />
    <path
       style="opacity:0.847518;fill:#fcd116;fill-opacity:1;stroke-width:0.147448"
       d="m 46.522402,63.507821 -0.41068,-0.428098 1.010124,-1.05475 1.010154,-1.054729 0.639317,0.653646 0.63932,0.653649 -1.178196,0.829202 c -0.647998,0.456046 -1.205485,0.829198 -1.238794,0.829198 -0.03337,0 -0.245414,-0.192813 -0.471245,-0.428095 z"
       id="path46" />
    <path
       style="opacity:0.847518;fill:#fcd116;fill-opacity:1;stroke-width:0.147448"
       d="m 46.582113,63.419484 -0.355421,-0.377785 0.993351,-0.989557 0.993349,-0.989559 0.498094,0.58941 c 0.273763,0.32402 0.467262,0.639464 0.429663,0.700644 -0.08445,0.137234 -1.742144,1.267759 -2.009261,1.370136 -0.106903,0.04105 -0.354298,-0.09551 -0.549775,-0.303289 z"
       id="path47" />
    <path
       style="opacity:0.847518;fill:#fcd116;fill-opacity:1;stroke-width:0.147448"
       d="m 48.763801,79.517516 -0.401025,-0.33083 0.287058,-0.34403 0.287056,-0.34403 0.445404,0.316857 c 0.436784,0.310454 0.440415,0.323657 0.187829,0.67077 -0.317651,0.436264 -0.315375,0.436129 -0.806322,0.03108 z"
       id="path48" />
    <path
       style="opacity:0.847518;fill:#fcd116;fill-opacity:1;stroke-width:0.37478"
       d=""
       id="path49" />
    <path
       style="opacity:0.847518;fill:#fcd116;fill-opacity:1;stroke-width:0.37478"
       d=""
       id="path50" />
    <path
       style="opacity:0.847518;fill:#fcd116;fill-opacity:1;stroke-width:0.147448"
       d="m 37.0641,84.159794 c 0.05878,-0.790165 0.137031,-1.486391 0.17365,-1.547206 0.03692,-0.06078 0.321252,-0.110468 0.632024,-0.110468 0.641265,0 0.644068,0.0069 0.831806,2.026071 l 0.09921,1.068271 H 37.878913 36.95703 Z"
       id="path51" />
    <path
       style="opacity:0.847518;fill:#fcd116;fill-opacity:1;stroke-width:0.147448"
       d="m 35.567037,85.338598 c 0.03839,-0.141773 0.110744,-0.440213 0.160361,-0.663085 0.07176,-0.321392 0.173945,-0.405209 0.494312,-0.405209 0.388263,0 0.401936,0.02588 0.351199,0.663061 -0.05169,0.648203 -0.06439,0.663085 -0.564305,0.663085 -0.415431,0 -0.498358,-0.04832 -0.441478,-0.25801 z"
       id="path52" />
    <path
       style="opacity:0.847518;fill:#fcd116;fill-opacity:1;stroke-width:0.147448"
       d="m 39.648174,85.128888 c 0,-0.200758 0.112228,-0.269328 0.442631,-0.269328 0.589082,0 0.589082,0.387127 0,0.473484 -0.353916,0.05194 -0.442631,0.01098 -0.442631,-0.204385 z"
       id="path53" />
    <path
       style="opacity:0.847518;fill:#fcd116;fill-opacity:1;stroke-width:0.147448"
       d="m 21.841649,75.171404 c -0.05053,-0.141777 -0.118747,-0.307446 -0.151619,-0.368555 -0.03283,-0.06078 0.11019,-0.110467 0.317848,-0.110467 0.304363,0 0.377562,0.07124 0.377562,0.368552 0,0.42905 -0.401218,0.510601 -0.543791,0.11047 z"
       id="path54" />
    <path
       style="opacity:0.847518;fill:#fcd116;fill-opacity:1;stroke-width:0.147448"
       d="m 47.269127,60.866266 c -0.495498,-0.546782 -0.174246,-0.946638 0.329728,-0.410676 0.268442,0.285189 0.287941,0.369687 0.117533,0.510669 -0.157405,0.130434 -0.258997,0.107975 -0.447563,-0.100032 z"
       id="path55" />
    <path
       style="opacity:0.847518;fill:#fcd116;fill-opacity:1;stroke-width:0.147448"
       d="M 33.939057,85.379173 C 31.816743,84.9915 29.054995,83.899841 28.655301,83.290634 28.526865,83.094866 28.358342,82.97378 28.280758,83.021686 c -0.07756,0.04788 -0.214167,0.04196 -0.303491,-0.01321 -0.0991,-0.06102 0.201442,-0.466888 0.771244,-1.041051 l 0.933666,-0.940806 -0.524742,-0.524072 -0.524745,-0.524082 -1.192183,0.820157 c -0.746251,0.513388 -1.279963,0.786483 -1.426856,0.730227 -0.36952,-0.141552 -0.280264,-0.308571 0.355504,-0.665535 0.669007,-0.37533 0.72183,-0.554403 0.281294,-0.952561 -0.304363,-0.274995 -0.319432,-0.273477 -1.025058,0.120224 l -0.716167,0.399332 -0.536639,-0.621892 C 23.281632,78.544202 21.734224,75.576453 22.166,75.576453 c 0.152447,0 0.219455,-0.157198 0.219455,-0.515728 0,-0.445722 -0.04793,-0.515723 -0.353088,-0.515723 -0.319696,0 -0.641893,-0.38162 -0.468455,-0.554812 0.03887,-0.03878 1.001001,-0.181932 2.138058,-0.317994 1.137053,-0.136101 2.09104,-0.277245 2.119965,-0.31347 0.02893,-0.0365 0.02519,-0.371183 -0.0083,-0.744186 l -0.06091,-0.677958 -2.023338,-0.169453 c -1.112839,-0.09324 -2.136065,-0.169453 -2.273837,-0.169453 -0.137797,0 -0.250491,-0.07327 -0.250491,-0.162195 0,-0.112517 0.316411,-0.130431 1.032813,-0.05875 l 1.032815,0.103671 v -0.514708 c 0,-0.563457 -0.03252,-0.581851 -1.371173,-0.774802 l -0.707219,-0.101859 0.09424,-0.682233 c 0.320302,-2.31883 1.26003,-4.713994 2.543978,-6.484104 0.320189,-0.441459 0.472206,-0.549712 0.596886,-0.425196 0.124688,0.124543 0.261716,0.07849 0.538105,-0.180796 0.379004,-0.35571 0.492087,-0.738599 0.218097,-0.738599 -0.102447,0 -0.09955,-0.09912 0.0087,-0.301382 0.154602,-0.288567 0.201765,-0.269717 1.108612,0.442048 0.52093,0.408836 1.011587,0.74334 1.090348,0.74334 0.07875,0 0.321549,-0.233488 0.539536,-0.518948 0.443827,-0.581148 0.475239,-0.492496 -0.584264,-1.648441 -0.369445,-0.403103 -0.404704,-0.507407 -0.238918,-0.706915 0.154927,-0.186236 0.219484,-0.195078 0.317318,-0.0431 0.09076,0.141088 0.273174,0.03039 0.698419,-0.424787 0.316563,-0.338744 0.915362,-0.787895 1.330644,-0.998084 2.535862,-1.283344 6.93156,-2.070579 7.153659,-1.281189 0.03751,0.133612 0.113694,0.66531 0.169218,1.1816 l 0.101004,0.938701 0.672627,-0.09211 c 0.369923,-0.05058 0.697675,-0.116818 0.728298,-0.147443 0.03072,-0.03064 0.0951,-0.527613 0.143529,-1.104497 0.05846,-0.699448 0.150024,-1.048901 0.274354,-1.048901 0.113399,0 0.15593,0.115009 0.108682,0.294601 -0.05848,0.223211 -0.0045,0.294601 0.223265,0.294601 0.165086,0 0.4092,0.04196 0.542392,0.09278 0.167742,0.0642 0.26756,-0.0035 0.32447,-0.220946 0.10011,-0.381871 0.03043,-0.381439 1.37863,-0.0088 1.450718,0.401127 3.340695,1.289492 4.741219,2.228528 0.993914,0.666396 1.109205,0.789433 0.96122,1.026102 -0.1391,0.22253 -0.09862,0.338358 0.235078,0.671524 l 0.403146,0.402599 -0.833876,0.841562 -0.833876,0.841563 0.428601,0.514596 c 0.235671,0.282919 0.495495,0.519404 0.577273,0.525233 0.08152,0.0059 0.664799,-0.36288 1.295698,-0.819654 0.630901,-0.456655 1.18753,-0.789869 1.237054,-0.740436 0.04962,0.04944 -0.06143,0.212324 -0.246592,0.362132 -0.327489,0.264814 -0.329728,0.282916 -0.07766,0.666758 0.300288,0.457749 0.34825,0.46873 0.767077,0.175804 0.301406,-0.210964 0.333888,-0.177621 0.902949,0.920941 0.746636,1.441537 1.329902,3.290163 1.480251,4.691781 0.106906,0.995981 0.09392,1.089414 -0.150022,1.089414 -0.212931,0 -0.266974,0.118871 -0.266974,0.58941 0,0.491178 0.04902,0.589402 0.295027,0.589402 0.162426,0 0.295027,0.0642 0.295027,0.142236 0,0.249345 -0.487548,0.41072 -1.560606,0.516456 -0.574313,0.05648 -1.126392,0.153575 -1.226802,0.215726 -0.1134,0.06987 -0.165088,0.359478 -0.13644,0.761194 0.04606,0.64346 0.0511,0.64877 0.636627,0.685358 1.339647,0.08371 1.844294,0.200757 1.844294,0.427988 0,0.124075 -0.133779,0.260665 -0.297271,0.303288 -0.24866,0.06487 -0.292963,0.18896 -0.273465,0.759784 0.02381,0.68289 -0.24217,1.354887 -1.161365,2.933965 l -0.367144,0.630941 -0.531405,-0.31309 -0.531403,-0.313089 -0.269338,0.331936 c -0.147956,0.182612 -0.326332,0.433908 -0.396119,0.558514 -0.105135,0.187369 -0.298778,0.09392 -1.121257,-0.54014 l -0.994322,-0.76659 -0.47875,0.553113 -0.478746,0.55311 0.757501,0.866176 c 1.337817,1.529739 1.560375,1.819891 1.4672,1.91292 -0.05021,0.05013 -0.29689,-0.145635 -0.548064,-0.43547 l -0.456714,-0.52666 -0.35318,0.376468 -0.353146,0.376468 0.380435,0.498147 0.380439,0.498149 -1.13387,0.670658 c -1.241543,0.734356 -2.467635,1.277898 -3.70579,1.642885 -0.968078,0.285551 -0.895366,0.284057 -0.895366,0.01522 0,-0.159471 -0.163906,-0.220947 -0.590175,-0.220947 -0.531167,0 -0.590174,0.03673 -0.590174,0.368552 0,0.2618 -0.08004,0.36855 -0.276126,0.36855 -0.288235,0 -0.280557,0.03108 -0.544902,-2.247082 L 38.58096,82.35497 h -0.709013 c -0.818697,0 -0.796224,-0.04763 -0.961398,2.026072 -0.05316,0.668621 -0.144414,1.21565 -0.202592,1.21565 -0.0582,0 -0.06319,-0.331577 -0.01109,-0.73674 l 0.0948,-0.736743 H 36.2439 c -0.536956,0 -0.550275,0.01385 -0.675463,0.69811 -0.148548,0.812351 -0.179555,0.822984 -1.629626,0.558105 z"
       id="path56" />
    <path
       style="opacity:0.847518;fill:#fcd116;fill-opacity:1;stroke-width:0.147448"
       d="m 52.041934,71.008745 c 0,-0.2946 0.07354,-0.442048 0.221196,-0.442048 0.147664,0 0.221196,0.147444 0.221196,0.442048 0,0.294602 -0.07354,0.442069 -0.221196,0.442069 -0.14766,0 -0.221196,-0.14744 -0.221196,-0.442069 z"
       id="path57" />
  </g>
</svg>
